<svg width="51" height="51" viewBox="0 0 51 51" fill="none" xmlns="http://www.w3.org/2000/svg">
<path fill-rule="evenodd" clip-rule="evenodd" d="M36.0843 0.457031C37.3173 0.457031 38.3179 1.45703 38.3179 2.68917V5.61775C38.3179 6.20975 38.0826 6.7775 37.6637 7.19611C37.2448 7.61472 36.6767 7.84989 36.0843 7.84989C35.4919 7.84989 34.9238 7.61472 34.5049 7.19611C34.086 6.7775 33.8507 6.20975 33.8507 5.61775V2.68917C33.8507 1.45703 34.8513 0.457031 36.0843 0.457031ZM15.2132 31.6642C16.3678 31.6876 17.5154 31.4806 18.5889 31.0552C19.6624 30.6299 20.6402 29.9947 21.465 29.187C22.2898 28.3793 22.9451 27.4153 23.3924 26.3514C23.8397 25.2874 24.0702 24.145 24.0702 22.991C24.0702 21.8369 23.8397 20.6945 23.3924 19.6306C22.9451 18.5666 22.2898 17.6026 21.465 16.7949C20.6402 15.9872 19.6624 15.3521 18.5889 14.9267C17.5154 14.5014 16.3678 14.2943 15.2132 14.3177C12.9419 14.3638 10.7792 15.2978 9.18915 16.9194C7.59913 18.5409 6.70856 20.7207 6.70856 22.991C6.70856 25.2612 7.59913 27.441 9.18915 29.0626C10.7792 30.6841 12.9419 31.6181 15.2132 31.6642ZM0.75 49.0106C0.809684 45.2162 2.35992 41.5973 5.06615 38.9351C7.77237 36.2728 11.4176 34.7807 15.215 34.7807C19.0125 34.7807 22.6577 36.2728 25.3639 38.9351C28.0701 41.5973 29.6203 45.2162 29.68 49.0106C29.68 49.3942 29.5275 49.7621 29.2561 50.0334C28.9847 50.3046 28.6165 50.457 28.2326 50.457H2.19739C1.81352 50.457 1.44537 50.3046 1.17393 50.0334C0.902493 49.7621 0.75 49.3942 0.75 49.0106ZM49.7684 9.3606C50.014 9.19451 50.224 8.98122 50.3862 8.73318C50.5484 8.48513 50.6595 8.2073 50.7132 7.91588C50.7668 7.62447 50.7618 7.32529 50.6986 7.03581C50.6353 6.74633 50.515 6.47233 50.3446 6.2298C50.1743 5.98727 49.9573 5.78106 49.7064 5.62319C49.4555 5.46532 49.1757 5.35895 48.8832 5.31029C48.5907 5.26163 48.2915 5.27165 48.0029 5.33977C47.7143 5.40788 47.4422 5.53273 47.2024 5.70703L44.8044 7.38917C44.3306 7.73357 44.0112 8.25019 43.915 8.8277C43.8188 9.40522 43.9535 9.99739 44.2901 10.4766C44.6266 10.9558 45.1381 11.2837 45.7143 11.3896C46.2905 11.4955 46.8853 11.3709 47.3704 11.0427L49.7684 9.3606ZM21.8462 6.25346C21.5064 6.73763 21.3728 7.33677 21.4746 7.91933C21.5765 8.50189 21.9055 9.02025 22.3894 9.3606L24.7911 11.0427C25.0308 11.217 25.3029 11.3419 25.5915 11.41C25.8801 11.4781 26.1793 11.4881 26.4718 11.4395C26.7643 11.3908 27.0441 11.2845 27.295 11.1266C27.546 10.9687 27.7629 10.7625 27.9332 10.52C28.1036 10.2774 28.2239 10.0034 28.2872 9.71397C28.3504 9.42448 28.3554 9.12531 28.3018 8.83389C28.2481 8.54247 28.137 8.26464 27.9748 8.0166C27.8126 7.76856 27.6026 7.55527 27.357 7.38917L24.9554 5.70703C24.4709 5.36746 23.8714 5.23389 23.2885 5.33568C22.7055 5.43746 22.1868 5.76626 21.8462 6.24989V6.25346ZM35.9163 10.5999C36.9741 10.5895 38.0235 10.7878 39.0045 11.1835C39.9854 11.5791 40.8786 12.1642 41.6329 12.9054C42.3872 13.6466 42.9877 14.5292 43.4001 15.5027C43.8125 16.4761 44.0286 17.5214 44.036 18.5785C44.0003 21.507 42.2491 24.2927 39.626 25.5999V29.5749C39.6186 29.8055 39.5222 30.0242 39.3569 30.1854C39.1917 30.3465 38.9705 30.4374 38.7397 30.4392H33.4218C33.191 30.4374 32.9697 30.3465 32.8045 30.1854C32.6393 30.0242 32.5429 29.8055 32.5355 29.5749V25.6677C31.2739 25.0256 30.2034 24.0633 29.4312 22.8773C28.6591 21.6914 28.2125 20.3234 28.1361 18.9106C28.0994 17.854 28.2717 16.8006 28.643 15.8106C29.0144 14.8207 29.5776 13.9137 30.3004 13.1417C31.0231 12.3697 31.8912 11.7477 32.8549 11.3116C33.8186 10.8754 34.8589 10.6336 35.9163 10.5999Z" fill="#062C30"/>
</svg>
