<svg width="51" height="50" viewBox="0 0 51 50" fill="none" xmlns="http://www.w3.org/2000/svg">
<path fill-rule="evenodd" clip-rule="evenodd" d="M35.8343 0C37.0673 0 38.0679 1 38.0679 2.23214V5.16071C38.0679 5.75272 37.8326 6.32047 37.4137 6.73908C36.9948 7.15769 36.4267 7.39286 35.8343 7.39286C35.2419 7.39286 34.6738 7.15769 34.2549 6.73908C33.836 6.32047 33.6007 5.75272 33.6007 5.16071V2.23214C33.6007 1 34.6013 0 35.8343 0ZM14.9632 31.2071C16.1178 31.2306 17.2654 31.0235 18.3389 30.5982C19.4124 30.1728 20.3902 29.5377 21.215 28.73C22.0398 27.9223 22.6951 26.9583 23.1424 25.8943C23.5897 24.8304 23.8202 23.688 23.8202 22.5339C23.8202 21.3799 23.5897 20.2375 23.1424 19.1735C22.6951 18.1096 22.0398 17.1456 21.215 16.3379C20.3902 15.5302 19.4124 14.895 18.3389 14.4697C17.2654 14.0443 16.1178 13.8373 14.9632 13.8607C12.6919 13.9068 10.5292 14.8408 8.93915 16.4623C7.34913 18.0839 6.45856 20.2637 6.45856 22.5339C6.45856 24.8042 7.34913 26.984 8.93915 28.6055C10.5292 30.2271 12.6919 31.1611 14.9632 31.2071ZM0.5 48.5536C0.559684 44.7591 2.10992 41.1403 4.81615 38.478C7.52237 35.8158 11.1676 34.3237 14.965 34.3237C18.7625 34.3237 22.4077 35.8158 25.1139 38.478C27.8201 41.1403 29.3703 44.7591 29.43 48.5536C29.43 48.9372 29.2775 49.3051 29.0061 49.5764C28.7347 49.8476 28.3665 50 27.9826 50H1.94739C1.56352 50 1.19537 49.8476 0.923932 49.5764C0.652493 49.3051 0.5 48.9372 0.5 48.5536ZM49.5184 8.90357C49.764 8.73748 49.974 8.52419 50.1362 8.27614C50.2984 8.0281 50.4095 7.75027 50.4632 7.45885C50.5168 7.16743 50.5118 6.86826 50.4486 6.57878C50.3853 6.2893 50.265 6.0153 50.0946 5.77277C49.9243 5.53024 49.7073 5.32402 49.4564 5.16615C49.2055 5.00829 48.9257 4.90192 48.6332 4.85326C48.3407 4.8046 48.0415 4.81462 47.7529 4.88273C47.4643 4.95085 47.1922 5.0757 46.9524 5.25L44.5544 6.93214C44.0806 7.27654 43.7612 7.79316 43.665 8.37067C43.5688 8.94819 43.7035 9.54035 44.0401 10.0196C44.3766 10.4988 44.8881 10.8267 45.4643 10.9326C46.0405 11.0385 46.6353 10.9139 47.1204 10.5857L49.5184 8.90357ZM21.5962 5.79643C21.2564 6.2806 21.1228 6.87974 21.2246 7.4623C21.3265 8.04486 21.6555 8.56322 22.1394 8.90357L24.5411 10.5857C24.7808 10.76 25.0529 10.8849 25.3415 10.953C25.6301 11.0211 25.9293 11.0311 26.2218 10.9825C26.5143 10.9338 26.7941 10.8274 27.045 10.6696C27.296 10.5117 27.5129 10.3055 27.6832 10.0629C27.8536 9.82041 27.9739 9.54642 28.0372 9.25694C28.1004 8.96745 28.1054 8.66828 28.0518 8.37686C27.9981 8.08544 27.887 7.80761 27.7248 7.55957C27.5626 7.31153 27.3526 7.09824 27.107 6.93214L24.7054 5.25C24.2209 4.91042 23.6214 4.77686 23.0385 4.87864C22.4555 4.98042 21.9368 5.30923 21.5962 5.79286V5.79643ZM35.6663 10.1429C36.7241 10.1325 37.7735 10.3308 38.7545 10.7264C39.7354 11.122 40.6286 11.7072 41.3829 12.4484C42.1372 13.1895 42.7377 14.0721 43.1501 15.0456C43.5625 16.0191 43.7786 17.0643 43.786 18.1214C43.7503 21.05 41.9991 23.8357 39.376 25.1429V29.1179C39.3686 29.3484 39.2722 29.5672 39.1069 29.7283C38.9417 29.8895 38.7205 29.9804 38.4897 29.9821H33.1718C32.941 29.9804 32.7197 29.8895 32.5545 29.7283C32.3893 29.5672 32.2929 29.3484 32.2855 29.1179V25.2107C31.0239 24.5686 29.9534 23.6063 29.1812 22.4203C28.4091 21.2344 27.9625 19.8664 27.8861 18.4536C27.8494 17.397 28.0217 16.3435 28.393 15.3536C28.7644 14.3637 29.3276 13.4567 30.0504 12.6847C30.7731 11.9126 31.6412 11.2907 32.6049 10.8545C33.5686 10.4184 34.6089 10.1765 35.6663 10.1429Z" fill="#062C30"/>
</svg>
