<svg width="55" height="51" viewBox="0 0 55 51" fill="none" xmlns="http://www.w3.org/2000/svg">
<path d="M54.25 22.957C54.25 21.6309 53.7328 20.3592 52.8122 19.4215C51.8915 18.4838 50.6429 17.957 49.3409 17.957H33.8282L36.1845 6.53203C36.2336 6.28203 36.2582 6.00703 36.2582 5.73203C36.2582 4.70703 35.8409 3.75703 35.1782 3.08203L32.5764 0.457031L16.4255 16.907C15.5173 17.832 14.9773 19.082 14.9773 20.457V45.457C14.9773 46.7831 15.4945 48.0549 16.4151 48.9926C17.3357 49.9302 18.5844 50.457 19.8864 50.457H41.9773C44.0145 50.457 45.7573 49.207 46.4936 47.407L53.9064 29.782C54.1273 29.207 54.25 28.607 54.25 27.957V22.957ZM0.25 50.457H10.0682V20.457H0.25V50.457Z" fill="#062C30"/>
</svg>
