<svg width="11" height="16" viewBox="0 0 11 16" fill="none" xmlns="http://www.w3.org/2000/svg">
<path d="M9.87713 8C9.31132 7.51226 8.59202 7.25336 7.85394 7.27178H3.10955C2.89324 7.2774 2.67804 7.23807 2.47685 7.15615C2.27566 7.07423 2.09261 6.95141 1.93866 6.79503C1.78471 6.63866 1.66303 6.45194 1.58089 6.24607C1.49876 6.04019 1.45786 5.81939 1.46065 5.59688C1.45538 5.51027 1.45538 5.42341 1.46065 5.3368C1.52444 4.9392 1.72717 4.57922 2.03078 4.32446C2.33439 4.06969 2.71799 3.93767 3.10955 3.95319H7.78313C8.16436 3.95284 8.53332 4.09176 8.8242 4.34518C9.11509 4.59859 9.30899 4.95002 9.37133 5.3368H10.8887C10.8252 4.53465 10.4705 3.78646 9.89507 3.24098C9.31966 2.6955 8.56571 2.39268 7.78313 2.39272H6.1848V0H4.92031V2.39272H3.10955C2.32697 2.39268 1.57302 2.6955 0.997612 3.24098C0.422204 3.78646 0.0674772 4.53465 0.00395541 5.3368C-0.00131847 5.42341 -0.00131847 5.51027 0.00395541 5.59688C0.00395541 6.01629 0.084284 6.43159 0.240355 6.81908C0.396426 7.20656 0.625183 7.55864 0.913564 7.85521C1.49598 8.45415 2.2859 8.79064 3.10955 8.79064H7.90452C8.11912 8.78508 8.33263 8.82376 8.53247 8.9044C8.73231 8.98504 8.91443 9.106 9.0681 9.26015C9.22177 9.4143 9.34388 9.59853 9.42723 9.80198C9.51058 10.0054 9.55349 10.224 9.55342 10.4447C9.56318 10.5624 9.56318 10.6808 9.55342 10.7984C9.4731 11.1645 9.27414 11.4916 8.98922 11.726C8.70429 11.9604 8.35033 12.0882 7.98544 12.0884H3.23095C2.86606 12.0882 2.5121 11.9604 2.22717 11.726C1.94225 11.4916 1.74329 11.1645 1.66297 10.7984H0.135463C0.222397 11.5801 0.585929 12.3015 1.15679 12.8253C1.72764 13.349 2.46592 13.6385 3.23095 13.6385H4.92031V16H6.1848V13.6385H7.90452C8.66954 13.6385 9.40782 13.349 9.97868 12.8253C10.5495 12.3015 10.9131 11.5801 11 10.7984V10.4447C10.9988 9.97746 10.8975 9.51619 10.7035 9.09368C10.5094 8.67117 10.2273 8.29777 9.87713 8Z" fill="#062C30"/>
</svg>
