<svg width="49" height="44" viewBox="0 0 49 44" fill="none" xmlns="http://www.w3.org/2000/svg">
<path d="M27.8899 0.00852979C15.6006 -0.333625 5.53265 9.6622 5.53265 22.0042H1.2109C0.124424 22.0042 -0.406741 23.324 0.365862 24.0816L7.102 30.9247C7.58487 31.4135 8.33333 31.4135 8.81621 30.9247L15.5523 24.0816C15.7192 23.9093 15.8319 23.6909 15.8763 23.4538C15.9207 23.2168 15.8948 22.9718 15.8019 22.7496C15.7089 22.5275 15.5531 22.3381 15.354 22.2055C15.1549 22.0728 14.9215 22.0028 14.6832 22.0042H10.3614C10.3614 12.4728 18.0392 4.77426 27.5035 4.89646C36.4851 5.01866 44.0421 12.6683 44.1628 21.7598C44.2835 31.3157 36.6782 39.112 27.2621 39.112C23.375 39.112 19.7775 37.7678 16.9285 35.4949C16.4661 35.1262 15.8859 34.9423 15.2983 34.9784C14.7106 35.0144 14.1566 35.2678 13.7416 35.6904C12.7275 36.7169 12.7999 38.4521 13.9347 39.3319C17.7282 42.3681 22.4261 44.0136 27.2621 43.9999C39.4548 43.9999 49.3296 33.8086 48.9916 21.3688C48.6777 9.90659 39.2133 0.326245 27.8899 0.00852979ZM26.6585 12.2284C25.6686 12.2284 24.8477 13.0593 24.8477 14.0613V23.0551C24.8477 23.9105 25.3065 24.717 26.0308 25.1569L33.5637 29.6783C34.4328 30.1915 35.5434 29.8982 36.0505 29.0428C36.5575 28.163 36.2678 27.0388 35.4227 26.5256L28.4693 22.3464V14.0369C28.4693 13.0593 27.6484 12.2284 26.6585 12.2284Z" fill="#E9EEEE"/>
</svg>
