<svg width="54" height="50" viewBox="0 0 54 50" fill="none" xmlns="http://www.w3.org/2000/svg">
<path d="M54 22.5C54 21.1739 53.4828 19.9021 52.5622 18.9645C51.6415 18.0268 50.3929 17.5 49.0909 17.5H33.5782L35.9345 6.075C35.9836 5.825 36.0082 5.55 36.0082 5.275C36.0082 4.25 35.5909 3.3 34.9282 2.625L32.3264 0L16.1755 16.45C15.2673 17.375 14.7273 18.625 14.7273 20V45C14.7273 46.3261 15.2445 47.5979 16.1651 48.5355C17.0857 49.4732 18.3344 50 19.6364 50H41.7273C43.7645 50 45.5073 48.75 46.2436 46.95L53.6564 29.325C53.8773 28.75 54 28.15 54 27.5V22.5ZM0 50H9.81818V20H0V50Z" fill="#062C30"/>
</svg>
