<svg width="229" height="108" viewBox="0 0 229 108" fill="none" xmlns="http://www.w3.org/2000/svg">
<path fill-rule="evenodd" clip-rule="evenodd" d="M133.656 74.2844C133.245 83.4112 132.331 84.5544 124.146 87.9097C106.613 95.0988 76.8569 71.0896 76.6613 64.7961C80.9148 60.8464 86.8538 75.1057 105.228 81.6211C111.882 83.9808 120.392 85.3529 126.318 81.5399C128.955 79.8439 129.677 76.4728 128.59 74.1368C124.388 65.1071 107.686 60.5958 99.9128 53.3472C95.7062 49.4243 92.1732 45.7203 88.6694 41.6032C88.1684 41.0138 87.6736 40.4362 87.1831 39.8686C86.0589 40.3639 84.9231 40.8186 83.7608 41.1802C82.6552 41.5239 81.5212 41.5735 80.4616 42.0014L71.025 45.6767C66.767 47.5233 61.8584 48.2127 57.3986 46.9021C53.9595 45.8917 50.3495 43.426 49.5351 39.2643C48.7171 35.0868 51.1462 31.5512 53.9763 29.1954C56.1823 27.3598 58.6627 25.6707 61.0157 24.0778C61.7956 23.5488 62.5799 23.0247 63.366 22.5056C59.0522 21.5061 54.1046 21.305 48.1355 22.0271L34.9341 24.5612L9.45794 33.7266C0.833116 37.601 0.0850942 35.4077 1.39789 42.9584L3.00105 50.3654C4.34838 55.7842 8.77719 66.2285 11.2983 71.2343C14.0673 76.7333 14.5215 73.9149 23.326 71.8593C38.4325 68.3327 51.2436 85.8036 66.1775 95.3989C83.1332 106.293 100.577 111.273 118.718 104.93C120.006 104.48 120.644 104.584 121.917 104.191C123.207 103.793 123.818 103.254 125.222 102.816C127.488 102.109 129.208 101.557 131.383 100.623L140.74 96.6947C148.97 93.596 168.725 80.9227 174.125 76.4272C183.899 68.2901 172.381 58.8037 159.285 64.5118L149.835 68.192C148.348 68.7923 147.83 68.618 146.367 69.0737C142.122 70.3932 138.029 73.0798 133.658 74.2854L133.656 74.2844Z" fill="#05595B"/>
<path fill-rule="evenodd" clip-rule="evenodd" d="M95.8425 33.4412C96.2523 24.3144 97.1668 23.1722 105.353 19.8159C122.885 12.6278 152.642 36.636 152.837 42.9295C148.584 46.8802 142.645 32.6199 124.271 26.1045C117.617 23.7448 109.107 22.3728 103.18 26.1857C100.543 27.8827 99.8207 31.2529 100.908 33.5888C105.11 42.6175 121.812 47.1299 129.585 54.3784C133.792 58.3013 137.324 62.0053 140.829 66.1224C141.33 66.7119 141.825 67.2894 142.315 67.857C143.44 67.3617 144.575 66.907 145.738 66.5464C146.843 66.2027 147.977 66.1531 149.037 65.7252L158.474 62.0509C162.732 60.2043 167.64 59.5149 172.1 60.8255C175.539 61.8359 179.149 64.3016 179.964 68.4633C180.782 72.6418 178.352 76.1764 175.523 78.5322C173.317 80.3688 170.837 82.0569 168.485 83.6498C167.704 84.1788 166.92 84.7029 166.134 85.222C170.448 86.2215 175.396 86.4226 181.365 85.7005L194.566 83.1664L220.042 74.001C228.667 70.1266 229.415 72.3199 228.102 64.7692L226.5 57.3622C225.153 51.9434 220.723 41.4991 218.203 36.4933C215.435 30.9943 214.98 33.8127 206.175 35.8683C191.069 39.3949 178.258 21.924 163.324 12.3286C146.369 1.43457 128.925 -3.54538 110.783 2.79769C109.495 3.24744 108.857 3.14342 107.584 3.53671C106.294 3.93495 105.684 4.47286 104.28 4.91172C102.013 5.61804 100.293 6.17082 98.1184 7.105L88.7615 11.0329C80.5315 14.1306 60.7758 26.8049 55.3758 31.3004C45.602 39.4375 57.1197 48.9249 70.2159 43.2158L79.6666 39.5356C81.1529 38.9353 81.6708 39.1096 83.135 38.6539C87.3805 37.3344 91.473 34.6478 95.8443 33.4422L95.8425 33.4412Z" fill="#E2D784"/>
</svg>
