<svg width="11" height="16" viewBox="0 0 11 16" fill="none" xmlns="http://www.w3.org/2000/svg">
<path d="M5.5 11.9286C5.13533 11.9286 4.78559 11.7781 4.52773 11.5102C4.26987 11.2422 4.125 10.8789 4.125 10.5C4.125 9.70714 4.73688 9.07143 5.5 9.07143C5.86467 9.07143 6.21441 9.22194 6.47227 9.48985C6.73013 9.75776 6.875 10.1211 6.875 10.5C6.875 10.8789 6.73013 11.2422 6.47227 11.5102C6.21441 11.7781 5.86467 11.9286 5.5 11.9286ZM9.625 14.0714V6.92857H1.375V14.0714H9.625ZM9.625 5.5C9.98967 5.5 10.3394 5.65051 10.5973 5.91842C10.8551 6.18633 11 6.54969 11 6.92857V14.0714C11 14.4503 10.8551 14.8137 10.5973 15.0816C10.3394 15.3495 9.98967 15.5 9.625 15.5H1.375C1.01033 15.5 0.660591 15.3495 0.402728 15.0816C0.144866 14.8137 0 14.4503 0 14.0714V6.92857C0 6.13571 0.611875 5.5 1.375 5.5H2.0625V4.07143C2.0625 3.12423 2.42466 2.21582 3.06932 1.54605C3.71398 0.876274 4.58832 0.5 5.5 0.5C5.95142 0.5 6.39842 0.592378 6.81547 0.771859C7.23253 0.95134 7.61148 1.21441 7.93068 1.54605C8.24988 1.87769 8.50309 2.2714 8.67584 2.7047C8.84859 3.13801 8.9375 3.60242 8.9375 4.07143V5.5H9.625ZM5.5 1.92857C4.95299 1.92857 4.42839 2.15434 4.04159 2.5562C3.6548 2.95806 3.4375 3.50311 3.4375 4.07143V5.5H7.5625V4.07143C7.5625 3.50311 7.3452 2.95806 6.95841 2.5562C6.57161 2.15434 6.04701 1.92857 5.5 1.92857Z" fill="#E9EEEE"/>
</svg>
