<svg width="14" height="14" viewBox="0 0 14 14" fill="none" xmlns="http://www.w3.org/2000/svg">
<path d="M1.59091 14C1.15341 14 0.779015 13.8478 0.467727 13.5434C0.156439 13.2391 0.000530303 12.8727 0 12.4444V1.55555C0 1.12778 0.155909 0.761703 0.467727 0.457333C0.779545 0.152963 1.15394 0.000518518 1.59091 0H6.36364C6.58902 0 6.77807 0.0746667 6.9308 0.224C7.08352 0.373333 7.15962 0.557926 7.15909 0.777777C7.15856 0.997629 7.0822 1.18248 6.93 1.33233C6.7778 1.48218 6.58902 1.55659 6.36364 1.55555H1.59091V12.4444H6.36364C6.58902 12.4444 6.77807 12.5191 6.9308 12.6684C7.08352 12.8178 7.15962 13.0024 7.15909 13.2222C7.15856 13.4421 7.0822 13.6269 6.93 13.7768C6.7778 13.9266 6.58902 14.001 6.36364 14H1.59091ZM11.2756 7.77777H5.56818C5.3428 7.77777 5.15402 7.70311 5.00182 7.55377C4.84962 7.40444 4.77326 7.21985 4.77273 6.99999C4.7722 6.78014 4.84856 6.59555 5.00182 6.44622C5.15508 6.29688 5.34386 6.22222 5.56818 6.22222H11.2756L9.78409 4.76389C9.63826 4.62129 9.56534 4.44629 9.56534 4.23889C9.56534 4.03148 9.63826 3.85 9.78409 3.69444C9.92992 3.53889 10.1155 3.45774 10.3409 3.451C10.5663 3.44426 10.7585 3.51892 10.9176 3.675L13.7614 6.45555C13.9205 6.61111 14 6.79259 14 6.99999C14 7.2074 13.9205 7.38888 13.7614 7.54444L10.9176 10.325C10.7585 10.4805 10.5697 10.5552 10.3512 10.549C10.1328 10.5428 9.94371 10.4616 9.78409 10.3055C9.63826 10.15 9.56879 9.9654 9.57568 9.75177C9.58257 9.53814 9.65867 9.35977 9.80398 9.21666L11.2756 7.77777Z" fill="#E9EEEE"/>
</svg>
