<svg width="47" height="46" viewBox="0 0 47 46" fill="none" xmlns="http://www.w3.org/2000/svg">
<path d="M13.5875 13.0877C16.581 10.0941 16.581 5.23886 13.5875 2.24522C10.5939 -0.748408 5.73876 -0.748408 2.74518 2.24522C-0.248394 5.23886 -0.248394 10.0941 2.74518 13.0877C5.73995 16.0825 10.5939 16.0825 13.5875 13.0877ZM44.2539 32.9123C41.2603 29.9187 36.4052 29.9187 33.4116 32.9123C30.4181 35.9059 30.4181 40.7611 33.4116 43.7548C36.4052 46.7484 41.2603 46.7484 44.2539 43.7548C47.2487 40.7611 47.2487 35.9071 44.2539 32.9123ZM44.0215 5.18854L41.3119 2.47882C39.8145 0.981407 37.3875 0.981407 35.8913 2.47882L2.97877 35.392C1.48139 36.8894 1.48139 39.3164 2.97877 40.8127L5.68844 43.5224C7.18583 45.0198 9.61279 45.0198 11.109 43.5224L44.0215 10.6092C45.5189 9.11297 45.5189 6.68596 44.0215 5.18854Z" fill="#E9EEEE"/>
</svg>
