<svg width="51" height="51" viewBox="0 0 51 51" fill="none" xmlns="http://www.w3.org/2000/svg">
<path d="M50.75 14.7253V11.7006C50.75 10.4835 50.2671 9.31621 49.4076 8.45557C48.548 7.59494 47.3823 7.11144 46.1667 7.11144H40.5625L40 3.69042C39.851 2.78238 39.3829 1.95754 38.68 1.36467C37.9771 0.771807 37.0857 0.449948 36.1667 0.45715H28.6042C27.6888 0.454927 26.8024 0.779044 26.1039 1.37147C25.4053 1.96389 24.9402 2.78594 24.7917 3.69042L24.2292 7.11144H18.6251C17.4095 7.11144 16.2437 7.59494 15.3842 8.45557C14.5247 9.31621 14.0418 10.4835 14.0418 11.7006V14.7253H50.75ZM27.8334 4.29536C27.8631 4.12413 27.9529 3.96914 28.0866 3.85825C28.2202 3.74736 28.389 3.68785 28.5626 3.69042H36.1667C36.3403 3.68785 36.509 3.74736 36.6427 3.85825C36.7764 3.96914 36.8661 4.12413 36.8959 4.29536L37.375 7.21574H27.3751L27.8334 4.29536ZM33.9584 17.8543V20.8998C33.9584 21.3147 33.7938 21.7127 33.5007 22.006C33.2077 22.2994 32.8103 22.4643 32.3959 22.4643C31.9815 22.4643 31.5841 22.2994 31.291 22.006C30.998 21.7127 30.8334 21.3147 30.8334 20.8998V17.8543H14.0418V27.7835C14.0418 28.3862 14.1603 28.9829 14.3907 29.5397C14.621 30.0965 14.9586 30.6024 15.3842 31.0286C15.8098 31.4547 16.3151 31.7927 16.8711 32.0234C17.4272 32.254 18.0232 32.3727 18.6251 32.3727H46.1667C47.3823 32.3727 48.548 31.8892 49.4076 31.0286C50.2671 30.1679 50.75 29.0007 50.75 27.7835V17.8543H33.9584ZM36.5625 39.8614L30.3126 41.9474C30.2314 41.9428 30.1507 41.9621 30.0804 42.0029C30.0101 42.0436 29.9532 42.1041 29.9167 42.1768C29.6289 42.8021 29.1675 43.3313 28.5875 43.7011C28.0075 44.071 27.3335 44.266 26.6459 44.2628H19.5001C19.2625 44.2628 19.0346 44.1683 18.8666 44.0001C18.6986 43.8319 18.6043 43.6037 18.6043 43.3658C18.6043 43.1279 18.6986 42.8998 18.8666 42.7316C19.0346 42.5634 19.2625 42.4689 19.5001 42.4689H26.6667C27.1419 42.4689 27.5976 42.2799 27.9336 41.9434C28.2696 41.607 28.4584 41.1507 28.4584 40.6749C28.4584 40.1991 28.2696 39.7428 27.9336 39.4064C27.5976 39.07 27.1419 38.881 26.6667 38.881H20.4167C18.3507 37.2978 15.8492 36.3877 13.2501 36.2735H9.60428C8.48962 36.2789 7.39141 36.5431 6.39596 37.0453L1.00014 39.7362C0.933564 39.7715 0.876233 39.822 0.832796 39.8836C0.78936 39.9452 0.761042 40.0162 0.750139 40.0908V49.7489C0.748101 49.8297 0.76843 49.9095 0.808876 49.9795C0.849322 50.0494 0.908307 50.1068 0.979306 50.1453C1.04898 50.1856 1.12802 50.2068 1.20847 50.2068C1.28893 50.2068 1.36796 50.1856 1.43764 50.1453L7.18762 46.5574C7.4136 46.4116 7.66884 46.3173 7.93526 46.2812C8.20168 46.2452 8.47276 46.2683 8.72928 46.3488C26.5626 52.3773 20.6043 52.3981 40.7084 42.1768C40.8474 42.1087 40.967 42.0064 41.0559 41.8795C41.1448 41.7526 41.2002 41.6052 41.2169 41.451C41.2335 41.2969 41.2109 41.1411 41.1511 40.9981C41.0913 40.855 40.9963 40.7295 40.875 40.6332C40.2805 40.1491 39.5728 39.8243 38.8184 39.6893C38.064 39.5543 37.2878 39.6135 36.5625 39.8614Z" fill="#062C30"/>
</svg>
