<svg width="18" height="21" viewBox="0 0 18 21" fill="none" xmlns="http://www.w3.org/2000/svg">
<path d="M3.37498 8.27765C3.37498 7.66399 3.87867 7.16652 4.5 7.16652C5.12133 7.16652 5.62502 7.66399 5.62502 8.27765V16.7066L7.07964 15.27C7.51899 14.836 8.23114 14.836 8.67049 15.27C9.10984 15.7039 9.10984 16.4072 8.67049 16.8412L5.29543 20.1746C4.85608 20.6085 4.14393 20.6085 3.70458 20.1746L0.329511 16.8412C-0.109837 16.4072 -0.109837 15.7039 0.329511 15.27C0.7414 14.8632 1.39279 14.8381 1.83467 15.194L1.92036 15.27L3.37498 16.7066V8.27765ZM12.3752 12.7222V4.29321L10.9205 5.72986C10.4812 6.16379 9.76903 6.16379 9.32969 5.72986C8.89034 5.29594 8.89034 4.59258 9.32969 4.15866L12.7048 0.825266L12.7904 0.74931C13.2323 0.393359 13.8837 0.418463 14.2956 0.825266L17.6707 4.15866L17.7476 4.24329C18.108 4.67972 18.0826 5.32306 17.6707 5.72986C17.2588 6.13667 16.6074 6.16177 16.1655 5.80582L16.0798 5.72986L14.6252 4.29321V12.7222C14.6252 13.3358 14.1215 13.8333 13.5002 13.8333C12.8788 13.8333 12.3752 13.3358 12.3752 12.7222Z" fill="#062C30"/>
</svg>
