<svg width="43" height="44" viewBox="0 0 43 44" fill="none" xmlns="http://www.w3.org/2000/svg">
<path d="M19.6243 2.06901C20.2686 0.327772 22.7314 0.327774 23.3757 2.06901L27.9331 14.3852C28.1357 14.9327 28.5673 15.3643 29.1148 15.5669L41.431 20.1243C43.1722 20.7686 43.1722 23.2314 41.431 23.8757L29.1148 28.4331C28.5673 28.6357 28.1357 29.0673 27.9331 29.6148L23.3757 41.931C22.7314 43.6722 20.2686 43.6722 19.6243 41.931L15.0669 29.6148C14.8643 29.0673 14.4327 28.6357 13.8852 28.4331L1.56901 23.8757C-0.172228 23.2314 -0.172226 20.7686 1.56901 20.1243L13.8852 15.5669C14.4327 15.3643 14.8643 14.9327 15.0669 14.3852L19.6243 2.06901Z" fill="#E9EEEE"/>
</svg>
