<svg width="50" height="50" viewBox="0 0 50 50" fill="none" xmlns="http://www.w3.org/2000/svg">
<path d="M50 14.2682V11.2436C50 10.0264 49.5171 8.85918 48.6576 7.99854C47.798 7.13791 46.6323 6.65441 45.4167 6.65441H39.8125L39.25 3.23339C39.101 2.32535 38.6329 1.5005 37.93 0.90764C37.2271 0.314776 36.3357 -0.00708286 35.4167 0.000118268H27.8542C26.9388 -0.00210415 26.0524 0.322012 25.3539 0.914437C24.6553 1.50686 24.1902 2.32891 24.0417 3.23339L23.4792 6.65441H17.8751C16.6595 6.65441 15.4937 7.13791 14.6342 7.99854C13.7747 8.85918 13.2918 10.0264 13.2918 11.2436V14.2682H50ZM27.0834 3.83833C27.1131 3.6671 27.2029 3.51211 27.3366 3.40122C27.4702 3.29033 27.639 3.23082 27.8126 3.23339H35.4167C35.5903 3.23082 35.759 3.29033 35.8927 3.40122C36.0264 3.51211 36.1161 3.6671 36.1459 3.83833L36.625 6.75871H26.6251L27.0834 3.83833ZM33.2084 17.3972V20.4428C33.2084 20.8577 33.0438 21.2556 32.7507 21.549C32.4577 21.8424 32.0603 22.0072 31.6459 22.0072C31.2315 22.0072 30.8341 21.8424 30.541 21.549C30.248 21.2556 30.0834 20.8577 30.0834 20.4428V17.3972H13.2918V27.3265C13.2918 27.9292 13.4103 28.5259 13.6407 29.0827C13.871 29.6395 14.2086 30.1454 14.6342 30.5715C15.0598 30.9977 15.5651 31.3357 16.1211 31.5663C16.6772 31.797 17.2732 31.9157 17.8751 31.9157H45.4167C46.6323 31.9157 47.798 31.4322 48.6576 30.5715C49.5171 29.7109 50 28.5436 50 27.3265V17.3972H33.2084ZM35.8125 39.4044L29.5626 41.4903C29.4814 41.4858 29.4007 41.5051 29.3304 41.5458C29.2601 41.5866 29.2032 41.6471 29.1667 41.7198C28.8789 42.3451 28.4175 42.8742 27.8375 43.2441C27.2575 43.614 26.5835 43.809 25.8959 43.8058H18.7501C18.5125 43.8058 18.2846 43.7113 18.1166 43.5431C17.9486 43.3748 17.8543 43.1467 17.8543 42.9088C17.8543 42.6709 17.9486 42.4428 18.1166 42.2745C18.2846 42.1063 18.5125 42.0118 18.7501 42.0118H25.9167C26.3919 42.0118 26.8476 41.8228 27.1836 41.4864C27.5196 41.15 27.7084 40.6937 27.7084 40.2179C27.7084 39.7421 27.5196 39.2858 27.1836 38.9494C26.8476 38.6129 26.3919 38.4239 25.9167 38.4239H19.6667C17.6007 36.8408 15.0992 35.9306 12.5001 35.8165H8.85428C7.73962 35.8219 6.64141 36.0861 5.64596 36.5883L0.250139 39.2792C0.183564 39.3145 0.126233 39.365 0.0827964 39.4266C0.0393598 39.4882 0.0110416 39.5592 0.000139495 39.6338V49.2919C-0.00189857 49.3727 0.0184301 49.4525 0.0588759 49.5225C0.0993216 49.5924 0.158307 49.6498 0.229306 49.6883C0.298981 49.7285 0.378017 49.7497 0.458472 49.7497C0.538926 49.7497 0.617962 49.7285 0.687638 49.6883L6.43762 46.1004C6.6636 45.9545 6.91884 45.8603 7.18526 45.8242C7.45168 45.7882 7.72276 45.8112 7.97928 45.8918C25.8126 51.9203 19.8543 51.9411 39.9584 41.7198C40.0974 41.6517 40.217 41.5494 40.3059 41.4225C40.3948 41.2955 40.4502 41.1481 40.4669 40.994C40.4835 40.8399 40.4609 40.684 40.4011 40.541C40.3413 40.398 40.2463 40.2725 40.125 40.1762C39.5305 39.6921 38.8228 39.3673 38.0684 39.2323C37.314 39.0973 36.5378 39.1565 35.8125 39.4044Z" fill="#E9EEEE"/>
</svg>
