<svg width="22" height="23" viewBox="0 0 22 23" fill="none" xmlns="http://www.w3.org/2000/svg">
<path fill-rule="evenodd" clip-rule="evenodd" d="M11 4.95679C12.0609 4.95679 13.078 5.37852 13.8281 6.12866C14.5783 6.87881 15 7.89592 15 8.95679C15 10.0177 14.5783 11.0348 13.8281 11.7849C13.078 12.5351 12.0609 12.9568 11 12.9568C9.93913 12.9568 8.92202 12.5351 8.17188 11.7849C7.42173 11.0348 7 10.0177 7 8.95679C7 7.89592 7.42173 6.87881 8.17188 6.12866C8.92202 5.37852 9.93913 4.95679 11 4.95679ZM11 6.95679C10.4696 6.95679 9.96101 7.16765 9.58594 7.54272C9.21087 7.9178 9 8.42635 9 8.95679C9 9.48722 9.21087 9.99578 9.58594 10.3708C9.96101 10.7459 10.4696 10.9568 11 10.9568C11.5304 10.9568 12.039 10.7459 12.4141 10.3708C12.7891 9.99578 13 9.48722 13 8.95679C13 8.42635 12.7891 7.9178 12.4141 7.54272C12.039 7.16765 11.5304 6.95679 11 6.95679Z" fill="#062C30"/>
<path fill-rule="evenodd" clip-rule="evenodd" d="M11 0.956787C17.075 0.956787 22 5.88179 22 11.9568C22 18.0318 17.075 22.9568 11 22.9568C4.925 22.9568 0 18.0318 0 11.9568C0 5.88179 4.925 0.956787 11 0.956787ZM11.0654 15.9568C9.93925 15.9558 8.82891 16.2266 7.83008 16.7468C6.8312 17.2671 5.97293 18.0217 5.32812 18.9451C6.93023 20.2495 8.934 20.9601 11 20.9568C13.1026 20.9601 15.1394 20.2237 16.7539 18.8767C16.1063 17.9725 15.2521 17.2361 14.2627 16.7283C13.2734 16.2205 12.1774 15.9559 11.0654 15.9568ZM13.8809 3.4314C12.527 2.97406 11.0832 2.84522 9.66992 3.0564C8.25658 3.2676 6.91395 3.81308 5.75293 4.64624C4.59195 5.47939 3.64573 6.57709 2.99316 7.84839C2.3407 9.11962 2.00018 10.5279 2 11.9568C2 14.0468 2.7132 15.9708 3.9082 17.4988C4.74758 16.397 5.82994 15.5038 7.07129 14.8894C8.31277 14.275 9.68023 13.9559 11.0654 13.9568C12.4325 13.9553 13.7819 14.2659 15.0107 14.865C16.2398 15.4643 17.3164 16.3365 18.1572 17.4148C19.0236 16.2785 19.6073 14.9522 19.8594 13.5457C20.1114 12.1391 20.0243 10.6924 19.6064 9.32593C19.1885 7.95939 18.4508 6.71226 17.4551 5.68726C16.4595 4.66236 15.2345 3.88877 13.8809 3.4314Z" fill="#062C30"/>
</svg>
