<svg width="32" height="31" viewBox="0 0 32 31" fill="none" xmlns="http://www.w3.org/2000/svg">
<path fill-rule="evenodd" clip-rule="evenodd" d="M16 2.1898e-07C16.1561 -9.91418e-05 16.3105 0.0336158 16.4523 0.0988272C16.5942 0.164039 16.7203 0.259199 16.8219 0.377768L21.1474 5.42428C21.3341 5.64225 21.4264 5.92543 21.4043 6.21151C21.3821 6.49759 21.2472 6.76315 21.0292 6.94977C20.8112 7.13638 20.5281 7.22876 20.242 7.20659C19.9559 7.18442 19.6903 7.04951 19.5037 6.83153L17.0814 4.00549V19.8256C17.0814 20.1124 16.9675 20.3874 16.7647 20.5902C16.5619 20.793 16.2868 20.907 16 20.907C15.7132 20.907 15.4381 20.793 15.2353 20.5902C15.0325 20.3874 14.9186 20.1124 14.9186 19.8256V4.00405L12.4963 6.83153C12.4039 6.93946 12.2911 7.02813 12.1645 7.09249C12.0378 7.15684 11.8997 7.19561 11.758 7.20659C11.6164 7.21757 11.4739 7.20054 11.3389 7.15647C11.2038 7.11241 11.0787 7.04217 10.9708 6.94977C10.8629 6.85737 10.7742 6.74461 10.7098 6.61794C10.6455 6.49127 10.6067 6.35316 10.5957 6.21151C10.5848 6.06986 10.6018 5.92742 10.6459 5.79235C10.6899 5.65728 10.7602 5.53221 10.8526 5.42428L15.1781 0.377768C15.2797 0.259199 15.4058 0.164039 15.5477 0.0988272C15.6895 0.0336158 15.8439 -9.91418e-05 16 2.1898e-07ZM8.78493 10.0959C9.07173 10.0944 9.3474 10.2068 9.55128 10.4086C9.75516 10.6103 9.87056 10.8847 9.87209 11.1715C9.87362 11.4583 9.76116 11.734 9.55944 11.9379C9.35772 12.1418 9.08327 12.2572 8.79646 12.2587C7.22051 12.2673 6.10307 12.3077 5.25381 12.4634C4.43772 12.6148 3.96335 12.8556 3.61298 13.206C3.21358 13.6054 2.95405 14.1663 2.8113 15.2246C2.66567 16.3132 2.66279 17.7565 2.66279 19.8256V21.2674C2.66279 23.338 2.66567 24.7813 2.8113 25.8699C2.95405 26.9282 3.21502 27.4876 3.61298 27.8885C4.01237 28.2864 4.57181 28.546 5.63158 28.6887C6.71874 28.8358 8.16349 28.8372 10.2326 28.8372H21.7674C23.8365 28.8372 25.2798 28.8358 26.3699 28.6887C27.4282 28.546 27.9876 28.2864 28.387 27.887C28.7864 27.4876 29.046 26.9282 29.1887 25.8699C29.3343 24.7813 29.3372 23.338 29.3372 21.2674V19.8256C29.3372 17.7565 29.3343 16.3132 29.1887 15.2232C29.046 14.1663 28.785 13.6054 28.387 13.206C28.0352 12.8556 27.5623 12.6148 26.7462 12.4634C25.8969 12.3077 24.7795 12.2673 23.2035 12.2587C23.0615 12.2579 22.9211 12.2292 22.7901 12.1742C22.6592 12.1191 22.5404 12.0388 22.4406 11.9379C22.3407 11.8369 22.2617 11.7173 22.208 11.5858C22.1544 11.4543 22.1271 11.3135 22.1279 11.1715C22.1287 11.0295 22.1574 10.8891 22.2124 10.7581C22.2675 10.6272 22.3478 10.5084 22.4487 10.4086C22.5497 10.3087 22.6693 10.2297 22.8008 10.176C22.9323 10.1224 23.0731 10.0951 23.2151 10.0959C24.7752 10.1046 26.0743 10.142 27.1369 10.3367C28.2299 10.5386 29.1599 10.9207 29.9168 11.6776C30.7848 12.5442 31.1568 13.6386 31.3327 14.9362C31.5 16.1849 31.5 17.7753 31.5 19.7463V21.3467C31.5 23.3192 31.5 24.9081 31.3327 26.1582C31.1568 27.4559 30.7848 28.5488 29.9168 29.4168C29.0488 30.2848 27.9559 30.6568 26.6582 30.8327C25.4081 31 23.8178 31 21.8467 31H10.1533C8.18223 31 6.59186 31 5.34177 30.8327C4.04409 30.6583 2.95116 30.2848 2.08316 29.4168C1.21516 28.5488 0.843163 27.4559 0.668698 26.1582C0.5 24.9081 0.5 23.3178 0.5 21.3467V19.7463C0.5 17.7753 0.5 16.1849 0.668698 14.9348C0.841721 13.6371 1.2166 12.5442 2.08316 11.6762C2.84014 10.9207 3.77014 10.5371 4.86307 10.3367C5.92572 10.142 7.22484 10.1046 8.78493 10.0959Z" fill="white"/>
</svg>
